<svg version="1.1" xmlns="http://www.w3.org/2000/svg" xmlns:xlink="http://www.w3.org/1999/xlink" 
	 viewBox="0 0 387.013 387.013"
	 xml:space="preserve">
<g>
	<g>
		<path d="M55.496,39.832l-25.614,4.326c-14.148,2.385-21.738,27.25-16.973,55.547l27.717,164.356
			c2.112,12.512,12.942,21.664,25.617,21.664H85.06l22.736,101.288H271.44l25.84-101.288h17.015
			c12.336,0,22.967-8.684,25.443-20.767l33.73-164.701c5.759-28.106-0.974-53.229-15.023-56.1
			c-14.054-2.881-25.447-5.22-25.447-5.22l-39.902,194.827H88.2L55.496,39.832z"/>
		<path d="M203.437,0h-20.239c-44.721,0-81.11,30.827-81.11,68.721v63.528c0.042,0,0.072,7.951,0.08,15.903
			c0.008,8.798,5.206,15.919,11.611,15.919h11.61c12.271,24.959,38.123,42.423,68.108,42.423c29.866,0,55.617-17.32,67.968-42.423
			c0,0,5.134,0,11.481,0c6.344,0,11.484-7.121,11.484-15.919v-15.903c0.085,0,0.085-63.528,0.085-63.528
			C284.54,30.819,248.157,0,203.437,0z M274.113,117.748h-6.023c-6.18-35.634-37.177-62.764-74.576-62.764
			c-37.397,0-68.393,27.13-74.57,62.764h-6.414V68.721c0-24.179,17.917-44.959,43.365-53.79c8.542,3.18,20.121,8.831,33.186,9.099
			c13.344,0.256,29.262-6.276,38.347-10.105c27.178,8.127,46.687,29.597,46.687,54.804V117.748z"/>
	</g>
</g>
</svg>