<?xml version="1.0" encoding="UTF-8" standalone="no"?>
<!-- Created with Inkscape (http://www.inkscape.org/) -->

<svg
   width="500"
   height="150"
   viewBox="0 0 132.29166 39.687503"
   version="1.1"
   id="svg5"
   inkscape:version="1.1.2 (0a00cf5339, 2022-02-04)"
   sodipodi:docname="dibujo.svg"
   xmlns:inkscape="http://www.inkscape.org/namespaces/inkscape"
   xmlns:sodipodi="http://sodipodi.sourceforge.net/DTD/sodipodi-0.dtd"
   xmlns="http://www.w3.org/2000/svg"
   xmlns:svg="http://www.w3.org/2000/svg">
  <sodipodi:namedview
     id="namedview7"
     pagecolor="#ffffff"
     bordercolor="#666666"
     borderopacity="1.0"
     inkscape:pageshadow="2"
     inkscape:pageopacity="0.0"
     inkscape:pagecheckerboard="0"
     inkscape:document-units="mm"
     showgrid="false"
     units="px"
     width="300px"
     inkscape:zoom="1.3932941"
     inkscape:cx="347.01935"
     inkscape:cy="227.87724"
     inkscape:window-width="1920"
     inkscape:window-height="946"
     inkscape:window-x="0"
     inkscape:window-y="0"
     inkscape:window-maximized="1"
     inkscape:current-layer="layer2" />
  <defs
     id="defs2" />
  <g
     inkscape:groupmode="layer"
     id="layer2"
     inkscape:label="Fondo"
     style="display:inline">
    <rect
       style="fill:#ffffff;fill-opacity:1;stroke:none;stroke-width:0.4;stroke-miterlimit:4;stroke-dasharray:none;stroke-opacity:1"
       id="rect12233"
       width="23.669708"
       height="10.360551"
       x="7.7242374"
       y="13.555431" />
  </g>
  <g
     inkscape:label="Capa 1"
     inkscape:groupmode="layer"
     id="layer1"
     style="display:inline">
    <g
       style="fill:#5c8374;fill-opacity:1;stroke:none;stroke-width:6.9937;stroke-miterlimit:4;stroke-dasharray:none;stroke-opacity:1"
       id="g849"
       transform="matrix(0.05719437,0,0,0.05719437,2.0419161,5.035443)">
      <path
         d="M 312,8 C 175,8 64,119 64,256 c 0,137 111,248 248,248 137,0 248,-111 248,-248 0,-25.38 -3.82,-49.86 -10.9,-72.91 L 613.02,236.06 640,173.49 541.8,162.6 c -0.65,-1.6 -1.31,-3.19 -2,-4.77 L 634.69,117.4 595,61.64 534.59,146.55 C 494.17,64.46 409.7,8 312,8 Z M 191.99,256 c 0,-9.3 4.1,-17.5 10.5,-23.4 l -31,-9.3 c -8.5,-2.5 -13.3,-11.5 -10.7,-19.9 2.5,-8.5 11.4,-13.2 19.9,-10.7 l 80,24 c 8.5,2.5 13.3,11.5 10.7,19.9 -2.1,6.9 -8.4,11.4 -15.3,11.4 -0.5,0 -1.1,-0.2 -1.7,-0.2 0.7,2.7 1.7,5.3 1.7,8.2 0,17.7 -14.3,32 -32,32 -17.7,0 -32.1,-14.3 -32.1,-32 z m 252.61,-32.7 -31,9.3 c 6.3,5.8 10.5,14.1 10.5,23.4 0,17.7 -14.3,32 -32,32 -17.7,0 -32,-14.3 -32,-32 0,-2.9 0.9,-5.6 1.7,-8.2 -0.6,0.1 -1.1,0.2 -1.7,0.2 -6.9,0 -13.2,-4.5 -15.3,-11.4 -2.5,-8.5 2.3,-17.4 10.7,-19.9 l 80,-24 c 8.4,-2.5 17.4,2.3 19.9,10.7 2.5,8.5 -2.3,17.4 -10.8,19.9 z M 179.41,171.02 h 262.56 c 42.35,0 54.97,49.74 53.8,83.99 -1.18,34.83 -41.79,72.53 -72.23,72.53 -61.58,0 -73.62,-40.25 -112.85,-40.28 -39.23,0.03 -51.27,40.28 -112.85,40.28 -30.44,0 -71.05,-37.7 -72.23,-72.53 -1.17,-34.25 11.45,-83.99 53.8,-83.99 z"
         id="path840"
         style="fill:#5c8374;fill-opacity:1;stroke:none;stroke-width:6.9937;stroke-miterlimit:4;stroke-dasharray:none;stroke-opacity:1" />
    </g>
    <g
       aria-label="NINJA"
       transform="matrix(1.075493,0,0,1.1754425,20.899417,0.82168143)"
       id="text5171"
       style="font-size:15.875px;line-height:1.25;font-family:'Seven Swordsmen BB';-inkscape-font-specification:'Seven Swordsmen BB';letter-spacing:0px;word-spacing:0px;fill:#5c8374;fill-opacity:1;stroke:none;stroke-width:0.355759;stroke-miterlimit:4;stroke-dasharray:none;stroke-opacity:1">
      <path
         d="m 43.817745,12.586061 q -1.426269,0.542603 -2.713012,0.976685 0.232543,-1.069702 0.294555,-2.666504 -1.426269,-2.2324217 -4.046264,-4.1082762 0.03101,3.6586912 0.09302,6.4647212 -0.434082,0.139527 -1.348755,0.139527 -0.914673,0.0155 -1.348755,0.170532 0.341065,-1.689819 0.341065,-4.0617675 0,-1.9068604 -0.170532,-3.2246094 -0.09302,-0.666626 -0.465088,-1.1627197 -0.418579,-0.449585 -0.837159,-0.9146729 1.68982,-0.3875732 3.674195,-0.651123 0.573608,0.8216552 1.968872,2.9455566 0.558105,0.8681641 1.131714,1.7208252 0.651123,1.0076904 1.038696,1.767334 V 9.4079609 q 0.0155,-1.9223633 -0.139526,-3.1315918 -0.09302,-0.7441406 -0.5271,-1.2402344 -0.279053,-0.2635498 -0.790649,-0.8371582 1.658813,-0.3875732 3.689697,-0.651123 0.06201,4.5578613 0.155029,9.0382075 z"
         id="path832"
         style="fill:#5c8374;fill-opacity:1;stroke:none;stroke-width:0.355759;stroke-miterlimit:4;stroke-dasharray:none;stroke-opacity:1" />
      <path
         d="m 48.174068,13.252687 q -0.434082,0.15503 -1.364257,0.15503 -0.914673,0 -1.348755,0.155029 0.341064,-1.689819 0.341064,-4.185791 0,-1.9068603 -0.155029,-3.1005859 -0.09302,-0.666626 -0.465088,-1.1472168 -0.418579,-0.4650879 -0.837158,-0.9301758 1.596802,-0.3720703 3.674194,-0.651123 z"
         id="path834"
         style="fill:#5c8374;fill-opacity:1;stroke:none;stroke-width:0.355759;stroke-miterlimit:4;stroke-dasharray:none;stroke-opacity:1" />
      <path
         d="m 58.840084,12.586061 q -1.426269,0.542603 -2.713013,0.976685 0.232544,-1.069702 0.294556,-2.666504 -1.426269,-2.2324217 -4.046265,-4.1082762 0.03101,3.6586912 0.09302,6.4647212 -0.434082,0.139527 -1.348755,0.139527 -0.914673,0.0155 -1.348755,0.170532 0.341065,-1.689819 0.341065,-4.0617675 0,-1.9068604 -0.170533,-3.2246094 -0.09302,-0.666626 -0.465087,-1.1627197 -0.41858,-0.449585 -0.837159,-0.9146729 1.68982,-0.3875732 3.674195,-0.651123 0.573608,0.8216552 1.968872,2.9455566 0.558105,0.8681641 1.131714,1.7208252 0.651123,1.0076904 1.038696,1.767334 V 9.4079609 q 0.0155,-1.9223633 -0.139526,-3.1315918 -0.09302,-0.7441406 -0.5271,-1.2402344 -0.279053,-0.2635498 -0.790649,-0.8371582 1.658813,-0.3875732 3.689697,-0.651123 0.06201,4.5578613 0.155029,9.0382075 z"
         id="path836"
         style="fill:#5c8374;fill-opacity:1;stroke:none;stroke-width:0.355759;stroke-miterlimit:4;stroke-dasharray:none;stroke-opacity:1" />
      <path
         d="m 63.041378,10.121096 q 0,1.720825 -0.248047,2.790527 -0.341064,1.379761 -1.255737,2.480469 -0.992188,1.193725 -1.612305,1.64331 -0.124023,0.09302 -0.201538,0.09302 -0.04651,0 -0.155029,-0.139526 -0.124024,-0.139527 -0.186035,-0.139527 -0.03101,0.0155 -0.04651,0.03101 1.100708,-1.255737 1.240234,-2.666504 0.26355,-2.961059 0.26355,-4.2478026 0,-1.7363282 -0.248047,-3.6896973 -0.07751,-0.666626 -0.480591,-1.1627197 -0.418579,-0.449585 -0.837158,-0.9146729 1.596802,-0.3720703 3.674194,-0.651123 0.0155,0.7286377 0.06201,3.2866211 0.03101,2.0308838 0.03101,3.2866214 z"
         id="path838"
         style="fill:#5c8374;fill-opacity:1;stroke:none;stroke-width:0.355759;stroke-miterlimit:4;stroke-dasharray:none;stroke-opacity:1" />
      <path
         d="m 77.025021,11.500856 q -1.069703,0.5271 -2.154908,1.069703 -1.64331,0.775146 -2.061889,0.775146 -0.821656,0 -1.643311,-1.953369 -0.310058,-0.759644 -0.89917,-2.7130128 -2.015381,0.5115967 -3.674194,1.1782227 -0.170532,0.6356201 -0.170532,1.1627201 0,1.875854 2.061889,2.232421 -1.782837,0.682129 -2.821533,0.682129 -1.441772,0 -1.441772,-1.255737 0,-1.147217 1.209228,-3.2556152 -0.651123,-0.3255615 -1.519287,-1.1162109 1.038696,-0.1550293 2.402954,-0.2945557 0.79065,-1.1782226 2.185913,-2.6044922 1.209229,-1.1937256 2.418457,-2.4029541 0.341065,1.1782227 0.682129,2.3409424 0.403076,1.3487549 0.806153,2.3099365 0.837158,-0.031006 3.255615,-0.077515 -1.023194,0.1860351 -3.054077,0.5736084 1.503784,3.4571538 3.612182,3.4571538 0.403076,0 0.806153,-0.124024 z M 69.986691,7.7491474 Q 69.61462,6.4313984 69.304562,5.1291523 68.188351,6.3228779 67.366695,7.9196796 68.234859,7.8576679 69.986691,7.7491474 Z"
         id="path841"
         style="fill:#5c8374;fill-opacity:1;stroke:none;stroke-width:0.355759;stroke-miterlimit:4;stroke-dasharray:none;stroke-opacity:1" />
    </g>
    <g
       aria-label="SCRAPERS"
       id="text5171-3"
       style="font-size:15.875px;line-height:1.25;font-family:'Seven Swordsmen BB';-inkscape-font-specification:'Seven Swordsmen BB';letter-spacing:0px;word-spacing:0px;fill:#5c8374;fill-opacity:1;stroke:none;stroke-width:0.198335;stroke-miterlimit:4;stroke-dasharray:none;stroke-opacity:0.0100633"
       transform="matrix(1.1243577,0,0,1.1243577,24.347207,-77.240733)">
      <path
         d="m 26.562105,95.290024 q 0,0.790649 -0.759643,1.581299 -0.976685,1.023193 -2.619995,1.64331 -1.565796,0.604614 -3.023072,0.604614 -2.061889,0 -3.193603,-1.209228 -1.116211,-1.209229 -1.085205,-3.271118 v -0.232544 l 3.674194,-0.248047 -0.07751,0.356567 -0.976684,0.279053 q -0.09302,0.713135 -0.09302,1.302246 0,2.340943 1.519287,2.340943 1.178223,0 2.43396,-1.224732 1.27124,-1.240234 1.27124,-2.402954 0,-1.286743 -1.674316,-1.643311 -1.627808,-0.201538 -3.255615,-0.418579 -2.32544,-0.449585 -2.32544,-1.581298 0,-1.813843 2.356446,-2.371949 1.860351,-0.434082 4.092773,-0.434082 0.387573,0 0.79065,0.0155 -0.04651,0.744141 -0.108521,2.247925 -0.620117,0.139526 -2.046387,0.294556 V 89.41441 h -0.124023 q -0.666626,-0.0155 -1.348755,0.325562 -0.790649,0.403076 -0.790649,1.023193 0,0.465088 0.542602,0.945679 0.496094,0.465088 2.635498,0.89917 2.263428,0.480591 3.100586,1.038696 1.085205,0.759644 1.085205,1.643311 z"
         id="path844"
         style="fill:#5c8374;fill-opacity:1;stroke:none;stroke-width:0.198335;stroke-miterlimit:4;stroke-dasharray:none;stroke-opacity:0.0100633" />
      <path
         d="m 35.879366,95.708603 q -3.674194,2.728516 -6.278687,2.728516 -2.123901,0 -3.286621,-1.271241 -1.131714,-1.224731 -1.131714,-3.364135 0,-2.030884 1.085206,-3.503663 1.085205,-1.472778 3.023071,-1.984375 0.527099,-0.139526 1.054199,-0.139526 1.953369,0 4.046265,1.922363 -0.310059,0.03101 -1.503785,0.682129 -0.914672,0.496094 -1.736328,1.302246 -0.09302,0.07752 -0.170532,0.07752 -0.217041,0 -0.217041,-0.186035 0,-0.155029 0.201538,-0.5271 0.201538,-0.387573 0.201538,-0.434082 0,-0.279053 -1.147217,-0.697632 -1.054199,-0.387573 -1.503784,-0.387573 -0.961181,0 -1.457275,0.604614 -0.480591,0.589112 -0.480591,1.581299 0,1.891358 1.364258,3.271118 1.379761,1.364258 3.271118,1.364258 2.077393,0 4.464844,-1.612304 z"
         id="path846"
         style="fill:#5c8374;fill-opacity:1;stroke:none;stroke-width:0.198335;stroke-miterlimit:4;stroke-dasharray:none;stroke-opacity:0.0100633" />
      <path
         d="m 44.266451,99.274277 -0.341065,0.341064 q -3.06958,-3.193603 -6.232177,-4.60437 0,0.728638 0.04651,2.682007 -1.426269,0.542602 -2.713012,0.976684 0.341064,-1.705322 0.341064,-4.139282 0,-1.953369 -0.155029,-3.147094 -0.09302,-0.666626 -0.465088,-1.147217 -0.418579,-0.465088 -0.837158,-0.930176 1.689819,-0.387573 3.674194,-0.651123 l 0.0155,0.63562 q 0.558106,-0.10852 4.60437,-0.976685 0.868164,0.961182 0.868164,1.813843 0,0.976685 -1.193725,1.937866 -0.914673,0.713135 -2.092896,1.178223 2.139404,2.43396 4.480348,6.03064 z m -4.061768,-8.666138 q 0,-0.883667 -0.821655,-0.883667 -0.387573,0 -1.782837,0.232544 0,0.04651 0.06201,3.317627 0.930176,-0.248047 1.689819,-0.976685 0.852661,-0.806152 0.852661,-1.689819 z"
         id="path848"
         style="fill:#5c8374;fill-opacity:1;stroke:none;stroke-width:0.198335;stroke-miterlimit:4;stroke-dasharray:none;stroke-opacity:0.0100633" />
      <path
         d="m 55.893648,96.607773 q -1.069702,0.527099 -2.154907,1.069702 -1.643311,0.775146 -2.06189,0.775146 -0.821655,0 -1.64331,-1.953369 -0.310059,-0.759643 -0.89917,-2.713012 -2.015381,0.511596 -3.674195,1.178222 -0.170532,0.63562 -0.170532,1.16272 0,1.875854 2.06189,2.232422 -1.782837,0.682129 -2.821533,0.682129 -1.441773,0 -1.441773,-1.255738 0,-1.147216 1.209229,-3.255615 -0.651123,-0.325561 -1.519287,-1.116211 1.038696,-0.155029 2.402954,-0.294555 0.790649,-1.178223 2.185913,-2.604493 1.209228,-1.193725 2.418457,-2.402954 0.341064,1.178223 0.682129,2.340943 0.403076,1.348755 0.806152,2.309936 0.837158,-0.03101 3.255615,-0.07751 -1.023193,0.186035 -3.054077,0.573608 1.503784,3.457153 3.612183,3.457153 0.403076,0 0.806152,-0.124023 z m -7.03833,-3.751709 q -0.37207,-1.317749 -0.682129,-2.619995 -1.116211,1.193725 -1.937866,2.790527 0.868164,-0.06201 2.619995,-0.170532 z"
         id="path850"
         style="fill:#5c8374;fill-opacity:1;stroke:none;stroke-width:0.198335;stroke-miterlimit:4;stroke-dasharray:none;stroke-opacity:0.0100633" />
      <path
         d="m 62.35837,90.143051 q 0,1.612305 -2.139404,2.80603 -1.565796,0.852662 -3.59668,1.240235 0,0.06201 0.06201,3.503662 -1.42627,0.542602 -2.713013,0.976684 0.341064,-1.64331 0.341064,-4.061767 0,-1.953369 -0.155029,-3.224609 -0.07751,-0.651124 -0.480591,-1.131714 -0.403076,-0.480591 -0.821655,-0.945679 1.596802,-0.37207 3.674194,-0.651123 l 0.0155,0.713135 4.945435,-1.0542 q 0.868164,0.961182 0.868164,1.829346 z m -2.976563,0.651123 q 0,-0.976684 -0.883667,-0.976684 -0.387573,0 -1.953369,0.248046 l 0.06201,3.519166 q 0.976684,-0.232544 1.813843,-1.007691 0.961181,-0.868164 0.961181,-1.782837 z"
         id="path852"
         style="fill:#5c8374;fill-opacity:1;stroke:none;stroke-width:0.198335;stroke-miterlimit:4;stroke-dasharray:none;stroke-opacity:0.0100633" />
      <path
         d="m 71.923677,92.701035 q -3.643188,0.728637 -4.418335,0.899169 -2.495971,0.573609 -4.325317,1.271241 0.5271,0.775146 1.488281,1.240234 0.961182,0.449585 1.922364,0.449585 1.674316,0 4.046264,-1.426269 l 0.170533,0.573608 q -3.317627,2.728516 -5.937623,2.728516 -1.736328,0 -2.775024,-1.271241 -0.930176,-1.162719 -1.00769,-2.976562 -0.294556,-0.217041 -0.914673,-0.759644 0.310058,-0.03101 0.914673,-0.124023 0.170532,-2.154907 1.488281,-3.565674 1.379761,-1.503784 3.503662,-1.503784 2.309936,0 4.154785,1.860351 l -2.309936,1.705323 q -2.046387,-1.844849 -3.534668,-1.844849 -0.976685,0 -1.519287,0.759644 -0.480591,0.666626 -0.480591,1.689819 0,0.37207 0.07751,0.759643 3.48816,-0.341064 9.456787,-0.465087 z"
         id="path854"
         style="fill:#5c8374;fill-opacity:1;stroke:none;stroke-width:0.198335;stroke-miterlimit:4;stroke-dasharray:none;stroke-opacity:0.0100633" />
      <path
         d="m 80.465792,99.274277 -0.341065,0.341064 q -3.06958,-3.193603 -6.232177,-4.60437 0,0.728638 0.04651,2.682007 -1.426269,0.542602 -2.713012,0.976684 0.341064,-1.705322 0.341064,-4.139282 0,-1.953369 -0.155029,-3.147094 -0.09302,-0.666626 -0.465088,-1.147217 -0.418579,-0.465088 -0.837158,-0.930176 1.689819,-0.387573 3.674194,-0.651123 l 0.0155,0.63562 q 0.558105,-0.10852 4.60437,-0.976685 0.868164,0.961182 0.868164,1.813843 0,0.976685 -1.193725,1.937866 -0.914673,0.713135 -2.092896,1.178223 2.139404,2.43396 4.480348,6.03064 z m -4.061768,-8.666138 q 0,-0.883667 -0.821655,-0.883667 -0.387573,0 -1.782837,0.232544 0,0.04651 0.06201,3.317627 0.930175,-0.248047 1.689819,-0.976685 0.852661,-0.806152 0.852661,-1.689819 z"
         id="path856"
         style="fill:#5c8374;fill-opacity:1;stroke:none;stroke-width:0.198335;stroke-miterlimit:4;stroke-dasharray:none;stroke-opacity:0.0100633" />
      <path
         d="m 89.953585,95.290024 q 0,0.790649 -0.759644,1.581299 -0.976684,1.023193 -2.619995,1.64331 -1.565796,0.604614 -3.023071,0.604614 -2.06189,0 -3.193604,-1.209228 -1.116211,-1.209229 -1.085205,-3.271118 v -0.232544 l 3.674194,-0.248047 -0.07751,0.356567 -0.976685,0.279053 q -0.09302,0.713135 -0.09302,1.302246 0,2.340943 1.519287,2.340943 1.178222,0 2.43396,-1.224732 1.27124,-1.240234 1.27124,-2.402954 0,-1.286743 -1.674316,-1.643311 -1.627808,-0.201538 -3.255616,-0.418579 -2.325439,-0.449585 -2.325439,-1.581298 0,-1.813843 2.356445,-2.371949 1.860352,-0.434082 4.092774,-0.434082 0.387573,0 0.790649,0.0155 -0.04651,0.744141 -0.10852,2.247925 -0.620118,0.139526 -2.046387,0.294556 V 89.41441 h -0.124024 q -0.666626,-0.0155 -1.348755,0.325562 -0.790649,0.403076 -0.790649,1.023193 0,0.465088 0.542603,0.945679 0.496093,0.465088 2.635498,0.89917 2.263427,0.480591 3.100586,1.038696 1.085205,0.759644 1.085205,1.643311 z"
         id="path858"
         style="fill:#5c8374;fill-opacity:1;stroke:none;stroke-width:0.198335;stroke-miterlimit:4;stroke-dasharray:none;stroke-opacity:0.0100633" />
    </g>
  </g>
  <style
     type="text/css"
     id="style15607">
	.st0{fill:#000000;}
</style>
</svg>
